<svg xmlns="http://www.w3.org/2000/svg" width="40" height="40" viewBox="0 0 40 40" fill="none">
  <path d="M37.1876 24.4792V33.3333C37.1876 35.6125 35.548 37.575 33.2876 37.875C28.9397 38.4521 24.5043 38.75 20.0001 38.75C15.4959 38.75 11.0605 38.4521 6.71262 37.875C4.4522 37.575 2.81261 35.6125 2.81261 33.3333V24.4792M37.1876 24.4792C37.6823 24.0493 38.0781 23.5174 38.3478 22.9201C38.6175 22.3227 38.7548 21.6741 38.7501 21.0187V13.1375C38.7501 10.8854 37.1501 8.93958 34.923 8.60625C32.5632 8.25296 30.1916 7.98403 27.8126 7.8M37.1876 24.4792C36.7835 24.8229 36.3126 25.0937 35.7855 25.2708C30.6943 26.9601 25.3643 27.8183 20.0001 27.8125C14.4834 27.8125 9.1772 26.9187 4.2147 25.2708C3.70065 25.0998 3.22455 24.831 2.81261 24.4792M2.81261 24.4792C2.31791 24.0493 1.92212 23.5174 1.6524 22.9201C1.38269 22.3227 1.24545 21.6741 1.25011 21.0187V13.1375C1.25011 10.8854 2.85011 8.93958 5.0772 8.60625C7.43699 8.25295 9.80864 7.98403 12.1876 7.8M27.8126 7.8V5.9375C27.8126 4.6943 27.3188 3.50201 26.4397 2.62294C25.5606 1.74386 24.3683 1.25 23.1251 1.25H16.8751C15.6319 1.25 14.4396 1.74386 13.5606 2.62294C12.6815 3.50201 12.1876 4.6943 12.1876 5.9375V7.8M27.8126 7.8C22.612 7.39808 17.3882 7.39808 12.1876 7.8M20.0001 21.5625H20.0168V21.5792H20.0001V21.5625Z" stroke="black" stroke-width="1.5" stroke-linecap="round" stroke-linejoin="round"/>
</svg>
