<svg xmlns="http://www.w3.org/2000/svg" width="36" height="44" viewBox="0 0 36 44" fill="none">
  <path d="M16.6458 4.99167C16.5104 5.42917 16.4375 5.89375 16.4375 6.375C16.4375 7.2375 17.1375 7.9375 18 7.9375H27.375C27.7894 7.9375 28.1868 7.77288 28.4799 7.47985C28.7729 7.18683 28.9375 6.7894 28.9375 6.375C28.9376 5.90606 28.8674 5.43976 28.7292 4.99167M16.6458 4.99167C16.9417 4.03479 17.5362 3.19778 18.3422 2.60321C19.1482 2.00863 20.1234 1.68774 21.125 1.6875H24.25C26.3583 1.6875 28.1396 3.07917 28.7292 4.99167M16.6458 4.99167C15.8625 5.03958 15.0833 5.09583 14.3042 5.15833C11.9479 5.35417 10.1875 7.36042 10.1875 9.725V14.1875M28.7292 4.99167C29.5125 5.03958 30.2917 5.09583 31.0708 5.15833C33.4271 5.35417 35.1875 7.36042 35.1875 9.725V31.375C35.1875 32.6182 34.6936 33.8105 33.8146 34.6896C32.9355 35.5686 31.7432 36.0625 30.5 36.0625H25.8125M10.1875 14.1875H3.15625C1.8625 14.1875 0.8125 15.2375 0.8125 16.5312V39.9687C0.8125 41.2625 1.8625 42.3125 3.15625 42.3125H23.4687C24.7625 42.3125 25.8125 41.2625 25.8125 39.9687V36.0625M10.1875 14.1875H23.4687C24.7625 14.1875 25.8125 15.2375 25.8125 16.5312V36.0625M8.625 29.8125L11.75 32.9375L18 25.125" stroke="black" stroke-width="1.5" stroke-linecap="round" stroke-linejoin="round"/>
</svg>